<svg width="24" height="24" viewBox="0 0 24 24" fill="none" xmlns="http://www.w3.org/2000/svg">
<path d="M19.9804 12.1225C19.9354 12.045 19.9354 11.9487 19.9804 11.8712L20.6004 10.79C21.0266 10.045 21.0841 9.16372 20.7554 8.36997C20.4266 7.57747 19.7629 6.99372 18.9354 6.76872L17.7316 6.44247C17.6454 6.41872 17.5766 6.35122 17.5541 6.26497L17.2279 5.06122C17.0029 4.23247 16.4191 3.56997 15.6266 3.24122C14.8341 2.91247 13.9516 2.96872 13.2066 3.39622L12.1241 4.01622C12.0466 4.06122 11.9504 4.06122 11.8729 4.01622L10.7916 3.39622C10.0466 2.96997 9.16537 2.91372 8.37162 3.24122C7.57912 3.56997 6.99537 4.23372 6.77037 5.06122L6.44412 6.26497C6.42037 6.35122 6.35287 6.41997 6.26662 6.44247L5.06287 6.76872C4.23412 6.99372 3.57037 7.57747 3.24287 8.36997C2.91412 9.16247 2.97037 10.045 3.39787 10.79L4.01787 11.8725C4.06287 11.95 4.06287 12.0462 4.01787 12.1237L3.39787 13.205C2.97162 13.95 2.91412 14.8312 3.24287 15.625C3.57162 16.4175 4.23537 17.0012 5.06287 17.2262L6.26662 17.5525C6.35287 17.5762 6.42162 17.6437 6.44412 17.73L6.77037 18.9337C6.99537 19.7625 7.57912 20.4262 8.37162 20.7537C9.16412 21.0825 10.0466 21.0262 10.7916 20.5987L11.8729 19.9787C11.9504 19.9337 12.0466 19.9337 12.1241 19.9787L13.2066 20.5987C13.6304 20.8412 14.1004 20.965 14.5716 20.965C14.9279 20.965 15.2854 20.895 15.6266 20.7537C16.4191 20.425 17.0029 19.7612 17.2279 18.9337L17.5541 17.73C17.5779 17.6437 17.6454 17.575 17.7316 17.5525L18.9354 17.2262C19.7641 17.0012 20.4266 16.4175 20.7554 15.625C21.0841 14.8325 21.0279 13.95 20.6004 13.205L19.9804 12.1225ZM16.5304 10.03L11.5304 15.03C11.3841 15.1762 11.1916 15.25 11.0004 15.25C10.8091 15.25 10.6166 15.1762 10.4704 15.03L8.47037 13.03C8.17787 12.7375 8.17787 12.2625 8.47037 11.9687C8.76287 11.6762 9.23787 11.6762 9.53162 11.9687L11.0016 13.4387L15.4716 8.96872C15.7641 8.67622 16.2391 8.67622 16.5329 8.96872C16.8254 9.26122 16.8254 9.73622 16.5329 10.03H16.5304Z" fill="#0057FF"/>
</svg>
