<svg width="18" height="18" viewBox="0 0 18 18" fill="none" xmlns="http://www.w3.org/2000/svg">
<path d="M17.2097 8.53779L15.8381 7.16623C15.4481 6.77623 14.9306 6.56248 14.3794 6.56248H13.5609C13.5234 6.13311 13.47 5.70467 13.3987 5.27811L13.3566 5.02217C13.1541 3.80717 12.1987 2.87436 10.98 2.69998C8.52562 2.34936 6.03656 2.34936 3.58125 2.69998C2.3625 2.87436 1.40719 3.80717 1.20469 5.02217L1.1625 5.27811C0.8625 7.07811 0.8625 8.90342 1.1625 10.7025C1.31156 11.5987 1.86937 12.3319 2.62594 12.7294C2.60437 12.8587 2.59313 12.9909 2.59313 13.125C2.59313 14.4694 3.68625 15.5625 5.03063 15.5625C6.375 15.5625 7.46813 14.4694 7.46813 13.125C7.46813 13.1006 7.46719 13.0772 7.46625 13.0528H10.6247C10.6987 13.0528 10.7728 13.049 10.8459 13.0434C10.8459 13.0706 10.8431 13.0978 10.8431 13.125C10.8431 14.4694 11.9362 15.5625 13.2806 15.5625C14.625 15.5625 15.7181 14.4694 15.7181 13.125C15.7181 13.0622 15.7153 12.9994 15.7106 12.9375H16.5009C17.2247 12.9375 17.8134 12.3487 17.8134 11.625V9.99654C17.8134 9.44529 17.5987 8.92779 17.2097 8.53779ZM5.03156 14.4375C4.30781 14.4375 3.71906 13.8487 3.71906 13.125C3.71906 12.4012 4.30781 11.8125 5.03156 11.8125C5.75531 11.8125 6.34406 12.4012 6.34406 13.125C6.34406 13.8487 5.75531 14.4375 5.03156 14.4375ZM7.15312 11.9278C6.73406 11.1881 5.94 10.6875 5.03156 10.6875C4.22625 10.6875 3.51094 11.0803 3.06656 11.685C2.65594 11.4384 2.35687 11.0212 2.27344 10.5178C1.99406 8.8406 1.99406 7.13998 2.27344 5.4628L2.31562 5.20685C2.4375 4.47842 3.01031 3.91779 3.74156 3.81373C4.91625 3.64592 6.09843 3.56248 7.28156 3.56248C8.46468 3.56248 9.64687 3.64686 10.8216 3.81373C11.5528 3.91779 12.1256 4.47842 12.2475 5.20685L12.2897 5.4628C12.5691 7.13998 12.5691 8.8406 12.2897 10.5178C12.1537 11.3344 11.4534 11.9278 10.6256 11.9278H7.15312ZM13.2816 14.4375C12.5578 14.4375 11.9691 13.8487 11.9691 13.125C11.9691 12.4012 12.5578 11.8125 13.2816 11.8125C14.0053 11.8125 14.5941 12.4012 14.5941 13.125C14.5941 13.8487 14.0053 14.4375 13.2816 14.4375ZM13.5478 9.56248C13.6078 8.93811 13.6322 8.31279 13.6209 7.68748H14.3794C14.6297 7.68748 14.865 7.78498 15.0422 7.96217L16.4137 9.33374C16.4822 9.40217 16.5384 9.47904 16.5825 9.56248H13.5478Z" fill="#5D5D5D"/>
<path d="M7.28125 5.68213C6.14406 5.68213 5.21875 6.60744 5.21875 7.74463V9.24463C5.21875 9.55494 5.47094 9.80713 5.78125 9.80713C6.09156 9.80713 6.34375 9.55494 6.34375 9.24463V7.74463C6.34375 7.22807 6.76469 6.80713 7.28125 6.80713C7.79781 6.80713 8.21875 7.22807 8.21875 7.74463V9.24463C8.21875 9.55494 8.47094 9.80713 8.78125 9.80713C9.09156 9.80713 9.34375 9.55494 9.34375 9.24463V7.74463C9.34375 6.60744 8.41844 5.68213 7.28125 5.68213Z" fill="#5D5D5D"/>
</svg>
