<svg width="102" height="15" viewBox="0 0 102 15" fill="none" xmlns="http://www.w3.org/2000/svg">
<path d="M0 7.50001C0 11.6438 3.35812 15.0019 7.5 15C15.4912 14.9981 28.4531 14.9963 35.6062 14.9963C39.1575 14.9963 42.0525 14.2594 43.9369 11.25C45.8212 8.24062 49.4026 0 49.4026 0C49.4026 0 46.8844 6.482e-06 43.9369 6.482e-06H7.5C3.35812 6.482e-06 0 3.35813 0 7.50001Z" fill="#FEEE00"/>
<path d="M7.40102 10.29C8.04977 10.29 8.74164 10.0913 9.24977 9.73688L8.82789 8.75438C8.50352 9.0075 7.97289 9.14063 7.50789 9.14063C6.53477 9.14063 6.06977 8.53313 6.06977 8.07938V7.94625H9.95102C9.99414 7.78125 10.0598 7.38375 10.0598 7.06312C10.0598 5.5725 9.05477 4.6875 7.71414 4.6875C5.97414 4.6875 4.69727 6.1575 4.69727 7.89C4.69727 9.38063 5.75664 10.2863 7.40102 10.2863V10.29ZM8.81664 6.97688H6.22164C6.33039 6.39187 6.88164 5.83875 7.62789 5.83875C8.44914 5.83875 8.83914 6.32437 8.83914 6.86625C8.83914 6.88875 8.83914 6.95438 8.82789 6.97688H8.81664Z" fill="black"/>
<path d="M15.2377 10.1576L13.9609 7.41824L16.2746 4.82324H14.6959L13.2577 6.45824L12.5434 4.82324H11.0509L12.2302 7.41824L9.78711 10.1576H11.3546L12.9446 8.35762L13.7565 10.1576H15.2377Z" fill="black"/>
<path d="M19.1065 10.2901C20.8802 10.2901 21.8534 8.50133 21.8534 6.8982C21.8534 5.48445 21.0527 4.68945 19.8752 4.68945C19.249 4.68945 18.739 4.95383 18.2965 5.48445L18.4484 4.82258H17.0759L15.4746 12.1895H16.8471L17.4415 9.45008C17.7884 9.9807 18.4034 10.2901 19.1065 10.2901ZM18.8796 9.04133C18.3284 9.04133 17.884 8.78633 17.6571 8.42258L18.0677 6.57758C18.349 6.21383 18.7821 5.93633 19.2565 5.93633C19.9277 5.93633 20.4134 6.42195 20.4134 7.18508C20.4134 8.16758 19.7871 9.04133 18.8777 9.04133H18.8796Z" fill="black"/>
<path d="M23.5932 10.157L24.3507 6.65633C24.6526 6.30195 25.1401 6.01508 25.6482 6.01508C25.8638 6.01508 26.0588 6.06008 26.1451 6.0807L26.447 4.68945C25.6145 4.68945 25.052 5.01008 24.5982 5.5182L24.7501 4.82258H23.3776L22.2207 10.157H23.5932Z" fill="black"/>
<path d="M29.026 10.29C29.6748 10.29 30.3666 10.0913 30.8748 9.73688L30.4529 8.75438C30.1285 9.0075 29.5979 9.14063 29.1329 9.14063C28.1598 9.14063 27.6948 8.53313 27.6948 8.07938V7.94625H31.576C31.6191 7.78125 31.6848 7.38375 31.6848 7.06312C31.6848 5.5725 30.6798 4.6875 29.3391 4.6875C27.5991 4.6875 26.3223 6.1575 26.3223 7.89C26.3223 9.38063 27.3816 10.2863 29.026 10.2863V10.29ZM30.4435 6.97688H27.8485C27.9573 6.39187 28.5085 5.83875 29.2548 5.83875C30.076 5.83875 30.466 6.32437 30.466 6.86625C30.466 6.88875 30.466 6.95438 30.4548 6.97688H30.4435Z" fill="black"/>
<path d="M34.3645 10.29C35.7914 10.29 36.6239 9.43875 36.6239 8.4225C36.6239 6.79875 33.9633 6.94313 33.9633 6.29062C33.9633 6.015 34.2333 5.79375 34.7208 5.79375C35.3583 5.79375 36.007 6.1575 36.2564 6.48938L36.9708 5.55C36.4739 5.03063 35.6414 4.6875 34.7545 4.6875C33.3595 4.6875 32.602 5.55937 32.602 6.4875C32.602 8.08875 35.2627 7.9125 35.2627 8.63063C35.2627 8.92875 34.9702 9.18375 34.5052 9.18375C33.7477 9.18375 32.992 8.72063 32.677 8.34375L31.9102 9.32625C32.4933 9.95625 33.4139 10.2881 34.3645 10.2881V10.29Z" fill="black"/>
<path d="M39.5188 10.29C40.9457 10.29 41.7782 9.43875 41.7782 8.4225C41.7782 6.79875 39.1176 6.94313 39.1176 6.29062C39.1176 6.015 39.3876 5.79375 39.8751 5.79375C40.5126 5.79375 41.1613 6.1575 41.4107 6.48938L42.1251 5.55C41.6282 5.03063 40.7957 4.6875 39.9088 4.6875C38.5138 4.6875 37.7563 5.55937 37.7563 6.4875C37.7563 8.08875 40.417 7.9125 40.417 8.63063C40.417 8.92875 40.1245 9.18375 39.6595 9.18375C38.902 9.18375 38.1463 8.72063 37.8313 8.34375L37.0645 9.32625C37.6476 9.95625 38.5682 10.2881 39.5188 10.2881V10.29Z" fill="black"/>
</svg>
