<svg preserveAspectRatio="none" width="100%" height="100%" overflow="visible" style="display: block;" viewBox="0 0 32.0619 18.2176" fill="none" xmlns="http://www.w3.org/2000/svg">
<g id="Group">
<path id="Vector" d="M31.9952 8.87398C31.9548 8.16634 31.8071 7.46581 31.5412 6.79793C31.1499 5.81523 30.5153 4.95184 29.7378 4.22522C29.3254 3.84036 28.9309 3.42896 28.4745 3.0923C27.6663 2.49531 26.7503 2.04579 25.7995 1.7112C23.9773 1.07129 22.0777 0.692662 20.1664 0.415159C17.0852 -0.033505 14.0021 -0.156275 10.9364 0.453186C8.17042 1.00309 5.49207 2.29685 3.30862 4.0548C2.78351 4.47706 2.08982 5.1765 1.71356 5.73292C0.828317 7.04137 1.87044 8.63613 2.50006 9.81756C3.05601 10.8588 3.62598 11.8931 4.20897 12.9205C4.73042 13.8391 5.22387 14.7794 5.97348 15.5463C7.73032 17.3574 10.1523 18.0265 12.6368 18.1584C14.6478 18.2649 16.6629 18.0867 18.6638 17.8634C20.3309 17.6771 21.9939 17.4605 23.6446 17.1663C25.1249 16.9029 26.6685 16.6639 28.0151 15.9738C29.3556 15.2857 30.5195 14.2358 31.1911 12.8964C31.5717 12.1377 31.7795 11.2843 31.9131 10.4526C31.9967 9.92821 32.026 9.39808 31.9962 8.873L31.9952 8.87398Z" fill="var(--fill-0, #1F7A74)"/>
<path id="Vector_2" d="M1.02798 8.69634C0.911943 7.57467 1.19523 6.45313 2.07014 5.53923C2.29812 5.30142 2.55327 5.08807 2.83059 4.90605C3.38824 4.54103 3.98921 4.2279 4.60742 3.97259C5.82981 3.4669 7.10568 3.05426 8.3726 2.66518C9.61747 2.28301 10.8796 1.95278 12.161 1.70881C12.7746 1.59179 13.3914 1.49437 14.0112 1.41754C16.3249 1.13019 18.6696 1.12228 20.9928 1.28309C23.316 1.4439 23.8291 1.25647 27.4066 2.70914C28.6735 3.22328 29.82 4.07307 30.6733 5.13531C31.5316 6.20342 31.9892 7.44401 32.0328 8.82277C32.0832 10.4281 31.7735 12.3862 30.7473 13.6456C28.8995 15.91 25.7244 16.3355 22.8735 16.5014C20.9155 16.6154 18.9489 16.5823 16.9884 16.5875C16.0262 16.5895 15.063 16.5906 14.1009 16.5887C10.2983 16.583 6.5975 15.1826 3.56032 12.9893C3.47283 12.9258 3.38434 12.8671 3.30184 12.7977C2.11668 11.8009 1.18957 10.2494 1.02898 8.69633L1.02798 8.69634Z" fill="var(--fill-0, #C52A26)"/>
<path id="Vector_3" d="M1.36944 13.4312C0.942412 12.9655 0.595462 12.436 0.358682 11.8386C-0.210999 10.4038 -0.0136029 8.77435 0.663344 7.40954C1.42205 5.88088 2.50815 5.04157 4.16138 4.55002C8.85841 3.15336 13.8872 3.47522 18.7718 2.97993C20.6759 2.78681 22.5716 2.46727 24.4863 2.44468C25.2259 2.43629 25.9786 2.47394 26.6779 2.71067C27.5037 2.99027 28.211 3.53279 28.8261 4.13922C29.6718 4.97257 30.3825 5.95812 30.7655 7.07079C31.1485 8.18346 31.1856 9.42918 30.7386 10.5171C29.9063 12.5409 27.6568 13.611 25.5325 14.2849C22.7485 15.1679 19.855 15.6875 16.953 16.065C13.4421 16.5211 9.83918 16.7658 6.38252 16.0084C4.52162 15.6006 2.61022 14.7842 1.37144 13.4322L1.36944 13.4312Z" fill="var(--fill-0, #F06298)"/>
<path id="Vector_4" d="M12.8784 2.6154C13.7728 2.46538 14.6952 2.28981 15.6347 2.11322C17.4966 1.76302 19.1975 1.26702 20.7334 1.26374C23.3379 1.25818 25.4423 1.74901 26.9413 2.72663C29.0084 4.07477 29.4534 6.07568 29.4621 7.51747C29.4765 9.78805 28.5587 11.6644 26.7334 13.0953C24.2587 15.0368 20.2348 15.9889 15.4014 15.7766C11.3126 15.597 7.61464 14.6956 4.98838 13.2379C3.21743 12.2549 0.901184 10.4924 0.891764 7.91583C0.880477 4.46042 5.0623 3.92676 12.8764 2.61442L12.8784 2.6154Z" fill="var(--fill-0, #F3E008)"/>
</g>
</svg>
