<svg preserveAspectRatio="none" width="100%" height="100%" overflow="visible" style="display: block;" viewBox="0 0 11.5 11.5" fill="none" xmlns="http://www.w3.org/2000/svg">
<path id="Vector" fill-rule="evenodd" clip-rule="evenodd" d="M5.75 0.25C6.02614 0.25 6.25 0.473858 6.25 0.75V5.25H10.75C11.0261 5.25 11.25 5.47386 11.25 5.75C11.25 6.02614 11.0261 6.25 10.75 6.25H6.25V10.75C6.25 11.0261 6.02614 11.25 5.75 11.25C5.47386 11.25 5.25 11.0261 5.25 10.75V6.25H0.75C0.473858 6.25 0.25 6.02614 0.25 5.75C0.25 5.47386 0.473858 5.25 0.75 5.25H5.25V0.75C5.25 0.473858 5.47386 0.25 5.75 0.25Z" fill="var(--fill-0, #101628)" stroke="var(--stroke-0, #101628)" stroke-width="0.5" stroke-linecap="round" stroke-linejoin="round"/>
</svg>
