<svg width="24" height="24" viewBox="0 0 24 24" fill="none" xmlns="http://www.w3.org/2000/svg">
<path d="M17.5002 11.5C18.9802 11.5 20.3352 12.04 21.3827 12.9312C21.4277 10.6912 21.3115 8.4475 21.034 6.2225C20.8215 4.51875 19.4815 3.17999 17.7777 2.96624C13.944 2.48749 10.0565 2.48749 6.22273 2.96624C4.51898 3.17874 3.18023 4.51875 2.96648 6.2225C2.48773 10.0562 2.48773 13.9437 2.96648 17.7775C3.17898 19.4812 4.51898 20.82 6.22273 21.0337C8.13898 21.2737 10.0702 21.3937 12.0002 21.3937C12.3102 21.3937 12.6215 21.39 12.9315 21.3837C12.0402 20.3362 11.5002 18.9812 11.5002 17.5012C11.5002 14.1925 14.1915 11.5012 17.5002 11.5012V11.5ZM11.0002 11C10.4477 11 10.0002 10.5525 10.0002 9.99999V4.63249C10.0002 4.36374 10.2127 4.14249 10.4815 4.13249C10.9877 4.11499 11.494 4.10624 12.0002 4.10624C12.5065 4.10624 13.0127 4.11499 13.519 4.13249C13.7877 4.14124 13.999 4.36374 13.999 4.63249V9.99999C13.999 10.5525 13.5515 11 12.999 11H10.999H11.0002Z" fill="#2567E7"/>
<path d="M18.1474 13.4363L18.2062 13.3763C18.4949 13.08 18.4899 12.605 18.1924 12.3163C17.8949 12.0275 17.4212 12.0325 17.1324 12.33L15.8812 13.6125C15.5974 13.9038 15.5974 14.3688 15.8812 14.66L17.1312 15.9413C17.2787 16.0925 17.4724 16.1675 17.6687 16.1675C17.8649 16.1675 18.0462 16.0963 18.1924 15.9538C18.4499 15.7025 18.4874 15.3113 18.3037 15.0175C19.3374 15.3663 20.0874 16.37 20.0874 17.5525C20.0874 19.0238 18.9287 20.22 17.5037 20.22C16.0787 20.22 14.9199 19.0238 14.9199 17.5525C14.9199 17.1388 14.5837 16.8025 14.1699 16.8025C13.7562 16.8025 13.4199 17.1388 13.4199 17.5525C13.4199 19.85 15.2524 21.72 17.5037 21.72C19.7549 21.72 21.5874 19.85 21.5874 17.5525C21.5874 15.4788 20.0949 13.7538 18.1487 13.4375L18.1474 13.4363Z" fill="#2567E7"/>
</svg>
