<svg width="18" height="18" viewBox="0 0 18 18" fill="none" xmlns="http://www.w3.org/2000/svg">
<path d="M10.2937 2.14297C9.54375 1.53828 8.45531 1.53828 7.70625 2.14297C5.87813 3.61766 2.8125 6.61578 2.8125 10.1248C2.8125 13.6339 5.58844 16.3123 9 16.3123C12.4116 16.3123 15.1875 13.5364 15.1875 10.1248C15.1875 6.71328 12.1219 3.61766 10.2937 2.14297ZM9 15.1873C6.20812 15.1873 3.9375 12.9167 3.9375 10.1248C3.9375 6.97016 7.06688 4.10422 8.41219 3.0186C8.58188 2.88172 8.79094 2.81234 9 2.81234C9.20906 2.81234 9.41719 2.88078 9.58781 3.0186C10.9331 4.10422 14.0625 6.97016 14.0625 10.1248C14.0625 12.9167 11.7919 15.1873 9 15.1873Z" fill="#5D5D5D"/>
<path d="M9 12.9375C7.44937 12.9375 6.1875 11.6756 6.1875 10.125C6.1875 9.81469 5.93531 9.5625 5.625 9.5625C5.31469 9.5625 5.0625 9.81469 5.0625 10.125C5.0625 12.2962 6.82875 14.0625 9 14.0625C9.31031 14.0625 9.5625 13.8103 9.5625 13.5C9.5625 13.1897 9.31031 12.9375 9 12.9375Z" fill="#5D5D5D"/>
</svg>
