<svg width="18" height="18" viewBox="0 0 18 18" fill="none" xmlns="http://www.w3.org/2000/svg">
<path d="M13.9678 3.2148C12.9506 2.9898 11.9166 2.62324 10.8956 2.12543C9.69093 1.53762 8.30906 1.53762 7.10438 2.12543C6.08344 2.62324 5.05031 2.9898 4.03219 3.2148C3.09281 3.42293 2.4375 4.23762 2.4375 5.19668V10.4598C2.4375 11.9561 3.195 13.3239 4.46437 14.117L7.11187 15.7717C7.68562 16.1298 8.34281 16.3089 9 16.3089C9.65719 16.3089 10.3144 16.1298 10.8881 15.7717L13.5356 14.117C14.805 13.3239 15.5625 11.957 15.5625 10.4598V5.19668C15.5625 4.23762 14.9062 3.42199 13.9678 3.2148ZM14.4375 10.4598C14.4375 11.5661 13.8778 12.5767 12.9394 13.1626L10.2919 14.8173C9.50719 15.3076 8.49281 15.3076 7.70812 14.8173L5.06062 13.1626C4.12219 12.5767 3.5625 11.5661 3.5625 10.4598V5.19668C3.5625 4.76918 3.85594 4.40543 4.275 4.31262C5.37937 4.06887 6.49688 3.67231 7.59656 3.13606C8.04188 2.91856 8.52094 2.8098 8.99906 2.8098C9.47719 2.8098 9.95624 2.91856 10.4016 3.13606C11.5022 3.67231 12.6197 4.06887 13.7241 4.31262C14.1441 4.40543 14.4366 4.76918 14.4366 5.19668V10.4598H14.4375Z" fill="#5D5D5D"/>
<path d="M11.6033 6.53451L8.25082 9.88701L7.14832 8.78451C6.92894 8.56514 6.5727 8.56514 6.35238 8.78451C6.13207 9.00389 6.13301 9.36013 6.35238 9.58044L7.85238 11.0804C7.96207 11.1901 8.10644 11.2454 8.24988 11.2454C8.39332 11.2454 8.53769 11.1901 8.64738 11.0804L12.3974 7.33045C12.6168 7.11107 12.6168 6.75482 12.3974 6.53451C12.178 6.3142 11.8218 6.31514 11.6014 6.53451H11.6033Z" fill="#5D5D5D"/>
</svg>
